<?xml version="1.0" encoding="UTF-8" standalone="no"?>
<!-- Created with Inkscape (http://www.inkscape.org/) -->

<svg
   version="1.1"
   id="svg55"
   width="139.00531"
   height="139.00932"
   viewBox="0 0 139.00531 139.00932"
   xmlns="http://www.w3.org/2000/svg"
   xmlns:svg="http://www.w3.org/2000/svg">
  <defs
     id="defs59" />
  <g
     id="g63"
     transform="matrix(1.3333333,0,0,-1.3333333,-329.43066,518.08932)">
    <g
       id="g65"
       transform="scale(0.1)">
      <g
         id="g67"
         transform="scale(10)">
        <text
           xml:space="preserve"
           transform="matrix(1,0,0,-1,3.07539,251.392)"
           style="font-variant:normal;font-weight:500;font-size:16px;font-family:Montserrat;-inkscape-font-specification:Montserrat-Medium;writing-mode:lr-tb;fill:#74cfb6;fill-opacity:1;fill-rule:nonzero;stroke:none"
           id="text71"><tspan
             x="0 11.328101 24.767601 40.0476 50.879097 62.591099 75.583099 85.935097 90.239098 103.23109 114.9431 130.2231"
             y="0"
             id="tspan69">COMPANY NAME</tspan></text>
      </g>
      <g
         id="g73"
         transform="scale(10)">
        <text
           xml:space="preserve"
           transform="matrix(1,0,0,-1,28.3793,233.502)"
           style="font-variant:normal;font-weight:normal;font-size:12px;font-family:Montserrat;-inkscape-font-specification:Montserrat-Regular;writing-mode:lr-tb;fill:#2b2c2d;fill-opacity:1;fill-rule:nonzero;stroke:none"
           id="text77"><tspan
             x="0 6.4677696 14.951662 24.227661 31.295046 34.919044 44.675045 52.703045 55.847046 65.603043 73.631042 82.307045"
             y="0"
             id="tspan75">TAGLINE HERE</tspan></text>
      </g>
      <path
         d="m 1259.99,3490.55 c -173.51,190.72 -389.228,170.17 -465.736,155.22 51.621,-12.45 100.57,-38.82 140.867,-79.12 116.659,-116.65 116.659,-305.79 0,-422.44 -75.32,-75.32 -180.851,-101.93 -277.586,-79.99 -93.91,-18.26 -304.316,-32.92 -467.531,147.54 24.281,-90.56 71.941,-176.16 143,-247.22 215.883,-215.89 565.902,-215.89 781.786,0 142.59,142.59 190.97,343.69 145.2,526.01"
         style="fill:#74cfb6;fill-opacity:1;fill-rule:nonzero;stroke:none"
         id="path79" />
      <path
         d="m 657.535,3064.22 c -53.082,12.05 -103.523,38.66 -144.859,79.99 -116.656,116.65 -116.656,305.79 0,422.44 76.359,76.36 183.765,102.73 281.578,79.12 76.508,14.95 292.226,35.5 465.736,-155.22 -23.52,93.72 -71.9,182.48 -145.2,255.78 -215.884,215.88 -565.895,215.88 -781.786,0 -144.82,-144.83 -192.481,-350.01 -143,-534.57 163.215,-180.46 373.621,-165.8 467.531,-147.54"
         style="fill:#2b2c2d;fill-opacity:1;fill-rule:nonzero;stroke:none"
         id="path81" />
      <path
         d="m 723.992,3056.79 c -19.695,0 -39.375,1.92 -58.762,5.79 19.352,-3.85 39.012,-5.76 58.676,-5.76 4.11,0 8.219,0.08 12.324,0.25 -0.007,-0.02 -0.015,-0.03 -0.023,-0.03 -4.07,-0.17 -8.141,-0.25 -12.215,-0.25 m -533.387,152.74 c 0,0.01 -0.003,0.02 -0.007,0.02 0.004,-0.01 0.004,-0.01 0.007,-0.02 m -0.125,0.45 c -0.011,0.05 -0.027,0.1 -0.039,0.15 0.012,-0.04 0.028,-0.1 0.039,-0.15 m -0.136,0.52 c -0.016,0.05 -0.035,0.12 -0.047,0.18 0.012,-0.06 0.031,-0.13 0.047,-0.18 m -0.141,0.51 c -0.015,0.07 -0.039,0.14 -0.058,0.22 0.023,-0.08 0.039,-0.14 0.058,-0.22"
         style="fill:#abe2d2;fill-opacity:1;fill-rule:nonzero;stroke:none"
         id="path83" />
      <path
         d="m 554.152,2983.09 c -35.332,0 -71.05,4.78 -105.394,12.39 -70.863,15.72 -139.156,42.85 -201.555,79.91 -25.019,42.52 -43.922,87.65 -56.598,134.14 -0.003,0.01 -0.003,0.01 -0.007,0.02 -0.039,0.15 -0.078,0.29 -0.118,0.43 -0.011,0.05 -0.027,0.11 -0.039,0.15 -0.031,0.12 -0.066,0.25 -0.097,0.37 -0.016,0.05 -0.035,0.12 -0.047,0.18 -0.031,0.11 -0.063,0.21 -0.094,0.33 -0.019,0.08 -0.035,0.14 -0.058,0.22 -0.047,0.18 -0.094,0.36 -0.141,0.53 v 0 0 c 1.004,-1.11 2.019,-2.22 3.031,-3.32 0.43,-0.47 0.848,-0.92 1.281,-1.39 0.039,-0.04 0.067,-0.07 0.106,-0.12 114.801,-123.82 251.984,-152.96 355.465,-153.01 0.097,0 0.207,0 0.304,0 v 0 0 c 0.008,0 0.012,0 0.024,0 42.933,0 80.039,5 107.32,10.3 v 0 c 2.559,-0.58 5.125,-1.13 7.695,-1.64 19.387,-3.87 39.067,-5.79 58.762,-5.79 4.074,0 8.145,0.08 12.215,0.25 -13.535,-17.54 -28.25,-34.27 -47.367,-44.13 -41.524,-21.4 -87.77,-29.83 -134.688,-29.82"
         style="fill:#63c9a6;fill-opacity:1;fill-rule:nonzero;stroke:none"
         id="path85" />
      <path
         d="m 550.191,3053.92 c -0.097,0 -0.207,0 -0.304,0 0.097,0 0.207,0 0.304,0 v 0 m 0.024,0 c 42.922,0 80.043,5 107.32,10.3 -27.281,-5.3 -64.387,-10.3 -107.32,-10.3 m -355.793,153.01 c -0.039,0.05 -0.067,0.08 -0.106,0.12 0.039,-0.04 0.067,-0.07 0.106,-0.12 m -1.387,1.51 c -1.012,1.1 -2.027,2.21 -3.031,3.32 1.004,-1.11 2.019,-2.22 3.031,-3.32"
         style="fill:#202b2a;fill-opacity:1;fill-rule:nonzero;stroke:none"
         id="path87" />
      <path
         d="m 1262.53,3479.98 c 0,0.03 0,0.03 -0.01,0.06 0.01,-0.02 0.01,-0.04 0.01,-0.06 m -0.17,0.75 c -0.01,0.05 -0.02,0.08 -0.03,0.13 0.01,-0.05 0.02,-0.09 0.03,-0.13 m -0.19,0.81 c -0.02,0.09 -0.03,0.15 -0.05,0.24 0.02,-0.08 0.03,-0.16 0.05,-0.24 m -0.16,0.7 c -0.03,0.1 -0.05,0.19 -0.07,0.29 0.02,-0.1 0.05,-0.19 0.07,-0.29 m -0.21,0.87 c -0.03,0.13 -0.05,0.24 -0.08,0.37 0.02,-0.12 0.05,-0.25 0.08,-0.37 m -0.15,0.65 c -0.06,0.25 -0.12,0.53 -0.19,0.78 0.07,-0.26 0.13,-0.52 0.19,-0.78 m -0.22,0.93 c -0.04,0.14 -0.07,0.3 -0.11,0.44 0.04,-0.15 0.07,-0.29 0.11,-0.44 m -0.15,0.64 c -0.07,0.28 -0.14,0.56 -0.21,0.85 0.07,-0.29 0.14,-0.57 0.21,-0.85 m -0.24,0.96 c -0.03,0.15 -0.08,0.32 -0.11,0.47 0.04,-0.16 0.07,-0.31 0.11,-0.47 m -0.15,0.64 c -0.07,0.26 -0.13,0.51 -0.19,0.78 0.06,-0.26 0.12,-0.52 0.19,-0.78 m -0.25,0.99 c -0.03,0.14 -0.06,0.28 -0.1,0.41 0.04,-0.14 0.07,-0.27 0.1,-0.41 m -0.18,0.74 c -0.04,0.16 -0.07,0.31 -0.12,0.48 0.04,-0.16 0.08,-0.32 0.12,-0.48 m -0.23,0.95 c -0.03,0.09 -0.05,0.17 -0.07,0.26 0.02,-0.09 0.04,-0.17 0.07,-0.26 m -335.117,86.61 c -0.019,0 -0.039,0 -0.058,0 -37.512,34.23 -81.621,57.19 -127.996,68.86 46.39,-11.67 90.535,-34.62 128.054,-68.86 M 796.98,3645.1 c -0.156,0.04 -0.312,0.08 -0.468,0.12 0.156,-0.04 0.312,-0.08 0.468,-0.12 m -0.593,0.15 c -0.149,0.04 -0.285,0.07 -0.43,0.11 0.145,-0.04 0.281,-0.07 0.43,-0.11 m -0.621,0.15 c -0.121,0.03 -0.246,0.06 -0.371,0.09 0.125,-0.03 0.25,-0.06 0.371,-0.09 m -0.637,0.16 c -0.102,0.02 -0.199,0.05 -0.301,0.07 0.102,-0.02 0.199,-0.05 0.301,-0.07"
         style="fill:#abe2d2;fill-opacity:1;fill-rule:nonzero;stroke:none"
         id="path89" />
      <path
         d="m 1275.85,3385.38 c -52.49,56.38 -114.52,103.87 -182.71,139.7 -52.07,27.37 -109.898,47.97 -168.027,51.14 -37.519,34.24 -81.664,57.19 -128.054,68.86 -0.028,0.01 -0.051,0.01 -0.079,0.02 -0.156,0.04 -0.312,0.08 -0.468,0.12 -0.043,0.01 -0.086,0.02 -0.125,0.03 -0.149,0.04 -0.285,0.07 -0.43,0.11 -0.062,0.01 -0.129,0.03 -0.191,0.04 -0.121,0.03 -0.246,0.06 -0.371,0.09 -0.086,0.03 -0.18,0.05 -0.266,0.07 -0.102,0.02 -0.199,0.05 -0.301,0.07 -0.191,0.05 -0.383,0.1 -0.574,0.14 v 0 c 0.199,0.04 0.406,0.08 0.609,0.12 22.164,4.3 55.758,9 96.477,9.01 0.008,0 0.012,0 0.019,0 0.149,0 0.297,0 0.446,0 100.797,-0.09 245.115,-29.07 368.185,-164.35 0.06,-0.23 0.12,-0.46 0.17,-0.68 0.02,-0.09 0.04,-0.17 0.07,-0.26 0.04,-0.16 0.07,-0.32 0.11,-0.47 0.05,-0.17 0.08,-0.32 0.12,-0.48 0.03,-0.11 0.06,-0.22 0.08,-0.33 0.04,-0.13 0.07,-0.27 0.1,-0.41 0.02,-0.07 0.04,-0.14 0.06,-0.21 0.06,-0.27 0.12,-0.52 0.19,-0.78 0.01,-0.06 0.03,-0.12 0.04,-0.17 0.03,-0.15 0.08,-0.32 0.11,-0.47 0.01,-0.04 0.02,-0.08 0.03,-0.11 0.07,-0.29 0.14,-0.57 0.21,-0.85 0.01,-0.06 0.03,-0.13 0.04,-0.2 0.04,-0.14 0.07,-0.3 0.11,-0.44 0.01,-0.05 0.02,-0.1 0.03,-0.15 0.07,-0.25 0.13,-0.53 0.19,-0.78 0.02,-0.09 0.04,-0.19 0.07,-0.28 0.03,-0.13 0.05,-0.24 0.08,-0.37 0.05,-0.2 0.1,-0.39 0.14,-0.58 0.02,-0.1 0.04,-0.19 0.07,-0.29 0.03,-0.15 0.07,-0.3 0.11,-0.46 0.02,-0.09 0.03,-0.15 0.05,-0.24 0.06,-0.23 0.11,-0.46 0.16,-0.68 0.01,-0.05 0.02,-0.08 0.03,-0.13 0.05,-0.23 0.11,-0.46 0.16,-0.69 0.01,-0.03 0.01,-0.03 0.01,-0.06 7.18,-31.16 11.61,-62.82 13.32,-94.6"
         style="fill:#63c9a6;fill-opacity:1;fill-rule:nonzero;stroke:none"
         id="path91" />
      <path
         d="m 794.863,3645.89 c 22.168,4.3 55.746,9.01 96.477,9.01 -40.719,-0.01 -74.313,-4.71 -96.477,-9.01 m 96.942,9.01 c -0.149,0 -0.297,0 -0.446,0 v 0 c 0.149,0 0.297,0 0.446,0"
         style="fill:#202b2a;fill-opacity:1;fill-rule:nonzero;stroke:none"
         id="path93" />
      <g
         id="g95"
         transform="scale(10)">
        <text
           xml:space="preserve"
           transform="matrix(1,0,0,-1,454.382,251.392)"
           style="font-variant:normal;font-weight:500;font-size:16px;font-family:Montserrat;-inkscape-font-specification:Montserrat-Medium;writing-mode:lr-tb;fill:#74cfb6;fill-opacity:1;fill-rule:nonzero;stroke:none"
           id="text99"><tspan
             x="0 11.32757 24.76757 40.046886 50.878868 62.590866 75.58287 85.934868 90.238869 103.23087 114.94286 130.22287"
             y="0"
             id="tspan97">COMPANY NAME</tspan></text>
      </g>
      <g
         id="g101"
         transform="scale(10)">
        <text
           xml:space="preserve"
           transform="matrix(1,0,0,-1,479.686,233.502)"
           style="font-variant:normal;font-weight:normal;font-size:12px;font-family:Montserrat;-inkscape-font-specification:Montserrat-Regular;writing-mode:lr-tb;fill:#2b2c2d;fill-opacity:1;fill-rule:nonzero;stroke:none"
           id="text105"><tspan
             x="0 6.4677854 14.951668 24.227667 31.295033 34.919033 44.675034 52.703033 55.847034 65.603035 73.631035 82.30703"
             y="0"
             id="tspan103">TAGLINE HERE</tspan></text>
      </g>
      <path
         d="m 5426.1,3195.01 c -75.32,-75.32 -180.84,-101.93 -277.58,-79.99 -5.55,1.27 -11.06,2.78 -16.55,4.36 l -308.61,-103.37 0.64,-0.67 c 215.87,-215.89 565.89,-215.89 781.78,0 88.64,88.64 140.73,199.88 156.53,315.16 l -308.4,-103.3 c -8.42,-11.2 -17.61,-22 -27.81,-32.19"
         style="fill:#2b2c2d;fill-opacity:1;fill-rule:nonzero;stroke:none"
         id="path107" />
      <path
         d="m 5003.66,3195.01 c -21.41,21.41 -38.84,45.28 -52.4,70.68 l -0.28,0.75 -357.32,-119.7 16.66,-36.02 115.33,38.63 c 18.44,-35.21 40.86,-68.86 67.41,-100.23 l 280.53,93.96 c -25.12,13.48 -48.74,30.74 -69.93,51.93"
         style="fill:#74cfb6;fill-opacity:1;fill-rule:nonzero;stroke:none"
         id="path109" />
      <path
         d="m 4677.19,3277.7 242.78,81.33 v 0.06 l 0.04,0.02 -0.07,0.17 c -9.12,57.61 -1.34,117.36 23.32,171.29 l -280.06,-93.81 c -2.19,-40.06 -0.19,-80.31 6.22,-120 l -120.7,-40.43 16.65,-36.03 111.81,37.46 0.01,-0.06"
         style="fill:#74cfb6;fill-opacity:1;fill-rule:nonzero;stroke:none"
         id="path111" />
      <path
         d="m 5426.1,3617.46 c 21.58,-21.57 39.13,-45.62 52.72,-71.22 l 242.76,81.33 114.55,38.37 -16.66,36.02 -115.23,-38.6 c -18.39,34.98 -40.75,68.41 -67.16,99.6 l -280.31,-93.89 c 24.89,-13.44 48.31,-30.59 69.33,-51.61"
         style="fill:#74cfb6;fill-opacity:1;fill-rule:nonzero;stroke:none"
         id="path113" />
      <path
         d="m 5003.66,3617.46 c 76.36,76.35 183.76,102.72 281.58,79.11 4.5,-1.08 8.94,-2.41 13.39,-3.71 l 308.15,103.22 -1,1.05 c -215.89,215.88 -565.91,215.88 -781.78,0 -88.78,-88.78 -140.96,-200.24 -156.7,-315.74 l 308.07,103.2 c 8.55,11.44 17.89,22.47 28.29,32.87"
         style="fill:#2b2c2d;fill-opacity:1;fill-rule:nonzero;stroke:none"
         id="path115" />
      <path
         d="m 5881.08,3536.35 -16.65,36.03 -354.64,-118.81 0.05,-0.12 -0.04,-0.01 c 9.21,-57.91 1.32,-117.98 -23.59,-172.15 l 280.21,93.85 c 2.23,40.3 0.2,80.76 -6.33,120.68 l 120.99,40.53"
         style="fill:#74cfb6;fill-opacity:1;fill-rule:nonzero;stroke:none"
         id="path117" />
      <path
         d="m 5083.22,3405.04 c 0,-72.63 58.88,-131.5 131.51,-131.5 72.62,0 131.5,58.87 131.5,131.5 0,72.63 -58.88,131.51 -131.5,131.51 -72.63,0 -131.51,-58.88 -131.51,-131.51"
         style="fill:#2b2c2d;fill-opacity:1;fill-rule:nonzero;stroke:none"
         id="path119" />
      <g
         id="g121"
         transform="scale(10)">
        <text
           xml:space="preserve"
           transform="matrix(1,0,0,-1,3.11328,21.5859)"
           style="font-variant:normal;font-weight:500;font-size:16px;font-family:Montserrat;-inkscape-font-specification:Montserrat-Medium;writing-mode:lr-tb;fill:#74cfb6;fill-opacity:1;fill-rule:nonzero;stroke:none"
           id="text125"><tspan
             x="0 11.328101 24.767601 40.0476 50.879097 62.591099 75.583099 85.935097 90.239098 103.23109 114.9431 130.2231"
             y="0"
             id="tspan123">COMPANY NAME</tspan></text>
      </g>
      <g
         id="g127"
         transform="scale(10)">
        <text
           xml:space="preserve"
           transform="matrix(1,0,0,-1,28.4172,3.69609)"
           style="font-variant:normal;font-weight:normal;font-size:12px;font-family:Montserrat;-inkscape-font-specification:Montserrat-Regular;writing-mode:lr-tb;fill:#2b2c2d;fill-opacity:1;fill-rule:nonzero;stroke:none"
           id="text131"><tspan
             x="0 6.4677696 14.95215 24.227539 31.29554 34.91954 44.675541 52.702881 55.847412 65.603409 73.630753 82.306755"
             y="0"
             id="tspan129">TAGLINE HERE</tspan></text>
      </g>
      <path
         d="m 1126.8,717.961 c 58.52,58.519 100.91,126.98 127.69,199.871 -55.22,85.478 -130.91,156.448 -220.25,205.888 4.03,-81.33 -25,-163.978 -87.111,-226.091 -75.32,-75.328 -180.848,-101.938 -277.586,-79.988 -53.082,12.05 -103.527,38.66 -144.859,79.988 -62.114,62.121 -91.145,144.771 -87.11,226.101 -89.34,-49.43 -165.035,-120.41 -220.261,-205.89 26.789,-72.899 69.175,-141.36 127.703,-199.879 215.882,-215.891 565.902,-215.891 781.784,0"
         style="fill:#74cfb6;fill-opacity:1;fill-rule:nonzero;stroke:none"
         id="path133" />
      <path
         d="m 842.988,1132.04 c 0,-59.18 -47.968,-107.15 -107.136,-107.15 -59.176,0 -107.145,47.97 -107.145,107.15 0,59.17 47.969,107.14 107.145,107.14 59.168,0 107.136,-47.97 107.136,-107.14"
         style="fill:#74cfb6;fill-opacity:1;fill-rule:nonzero;stroke:none"
         id="path135" />
      <path
         d="m 217.852,916.379 c -0.063,0.172 -0.125,0.34 -0.188,0.512 0.063,-0.172 0.125,-0.34 0.188,-0.512 m -0.278,0.75 c -0.09,0.23 -0.176,0.473 -0.261,0.711 v 0 c 0.085,-0.238 0.171,-0.469 0.261,-0.711 M 449.418,1024.1 c -9.406,31.9 -13.379,65.06 -11.918,98.03 -1.453,-32.95 2.605,-66.08 12,-97.97 -0.031,-0.02 -0.055,-0.04 -0.082,-0.06 m -11.914,98.08 c 0.004,0.09 0.008,0.19 0.012,0.28 -0.004,-0.09 -0.008,-0.19 -0.012,-0.28 m 0.019,0.47 c 0.004,0.07 0.008,0.14 0.008,0.22 0,-0.08 -0.004,-0.15 -0.008,-0.22 m 0.024,0.48 c 0,0.06 0.004,0.11 0.008,0.16 -0.004,-0.05 -0.008,-0.1 -0.008,-0.16"
         style="fill:#abe2d2;fill-opacity:1;fill-rule:nonzero;stroke:none"
         id="path137" />
      <path
         d="m 275.285,803.559 c -23.668,35.761 -42.89,73.601 -57.433,112.82 -0.063,0.172 -0.125,0.34 -0.188,0.512 -0.031,0.078 -0.059,0.16 -0.09,0.238 -0.09,0.242 -0.176,0.473 -0.261,0.711 55.226,85.48 130.921,156.46 220.261,205.89 -0.008,-0.15 -0.015,-0.29 -0.019,-0.44 -0.004,-0.05 -0.008,-0.1 -0.008,-0.16 -0.004,-0.09 -0.012,-0.17 -0.016,-0.26 0,-0.08 -0.004,-0.15 -0.008,-0.22 -0.003,-0.06 -0.007,-0.13 -0.007,-0.19 -0.004,-0.09 -0.008,-0.19 -0.012,-0.28 -0.004,-0.02 -0.004,-0.04 -0.004,-0.05 -1.461,-32.97 2.512,-66.13 11.918,-98.03 -76.5,-55.991 -137.402,-133.151 -174.133,-220.541"
         style="fill:#63c9a6;fill-opacity:1;fill-rule:nonzero;stroke:none"
         id="path139" />
      <path
         d="m 1253.62,915.461 c 0.05,0.148 0.1,0.289 0.16,0.43 -0.06,-0.141 -0.11,-0.282 -0.16,-0.43 m 0.27,0.73 c 0.09,0.25 0.19,0.508 0.28,0.758 -0.09,-0.25 -0.19,-0.508 -0.28,-0.758 m 0.29,0.789 c 0.11,0.29 0.21,0.571 0.31,0.852 v 0 c -0.1,-0.281 -0.2,-0.562 -0.31,-0.852 m -231.72,107.31 c -0.03,0.01 -0.06,0.03 -0.09,0.05 9.39,31.94 13.43,65.14 11.93,98.15 1.5,-33.02 -2.44,-66.24 -11.84,-98.2 m 11.84,98.31 c -0.01,0.09 -0.01,0.19 -0.02,0.28 0.01,-0.09 0.01,-0.19 0.02,-0.28 m -0.02,0.49 c -0.01,0.06 -0.01,0.13 -0.01,0.2 0,-0.07 0,-0.14 0.01,-0.2"
         style="fill:#abe2d2;fill-opacity:1;fill-rule:nonzero;stroke:none"
         id="path141" />
      <path
         d="m 1209.63,824.371 c -38.8,84.348 -105.86,155.18 -187.17,199.919 9.4,31.96 13.34,65.18 11.84,98.2 0,0.04 0,0.07 0,0.11 -0.01,0.09 -0.01,0.19 -0.02,0.28 0,0.07 0,0.14 0,0.21 -0.01,0.06 -0.01,0.13 -0.01,0.2 -0.01,0.15 -0.02,0.29 -0.03,0.43 v 0 c 89.34,-49.44 165.03,-120.41 220.25,-205.888 -0.1,-0.281 -0.2,-0.562 -0.31,-0.852 0,-0.011 -0.01,-0.019 -0.01,-0.031 -0.09,-0.25 -0.19,-0.508 -0.28,-0.758 -0.04,-0.101 -0.07,-0.199 -0.11,-0.3 -0.06,-0.141 -0.11,-0.282 -0.16,-0.43 -11.7,-31.371 -26.46,-61.832 -43.99,-91.09"
         style="fill:#63c9a6;fill-opacity:1;fill-rule:nonzero;stroke:none"
         id="path143" />
      <path
         d="m 345.016,1499.75 c -144.825,-144.83 -192.485,-350 -143.008,-534.559 4.289,-15.98 9.558,-31.73 15.305,-47.351 55.226,85.48 130.921,156.46 220.261,205.89 3.539,71.42 32.571,141.81 87.11,196.35 14.25,14.24 29.582,26.72 45.734,37.45 35.984,23.91 58.289,63.59 58.289,106.8 v 0.04 c 0,100.37 -111.531,162.2 -195.473,107.19 -31.207,-20.46 -60.796,-44.39 -88.218,-71.81"
         style="fill:#2b2c2d;fill-opacity:1;fill-rule:nonzero;stroke:none"
         id="path145" />
      <path
         d="m 1272,1243.97 c -23.53,93.73 -71.91,182.48 -145.2,255.78 -27.46,27.46 -57.09,51.42 -88.35,71.89 -83.942,54.99 -195.462,-6.84 -195.462,-107.19 0,-43.16 22.258,-82.84 58.207,-106.74 16.227,-10.79 31.629,-23.33 45.934,-37.63 54.551,-54.55 83.571,-124.94 87.111,-196.36 89.34,-49.44 165.03,-120.41 220.25,-205.888 38.48,104.708 44.5,218.648 17.51,326.138"
         style="fill:#2b2c2d;fill-opacity:1;fill-rule:nonzero;stroke:none"
         id="path147" />
      <g
         id="g149"
         transform="scale(10)">
        <text
           xml:space="preserve"
           transform="matrix(1,0,0,-1,229.15,251.392)"
           style="font-variant:normal;font-weight:500;font-size:16px;font-family:Montserrat;-inkscape-font-specification:Montserrat-Medium;writing-mode:lr-tb;fill:#74cfb6;fill-opacity:1;fill-rule:nonzero;stroke:none"
           id="text153"><tspan
             x="0 11.328107 24.768106 40.048107 50.879601 62.591599 75.583603 85.9356 90.239601 103.2316 114.9436 130.2236"
             y="0"
             id="tspan151">COMPANY NAME</tspan></text>
      </g>
      <g
         id="g155"
         transform="scale(10)">
        <text
           xml:space="preserve"
           transform="matrix(1,0,0,-1,254.454,233.502)"
           style="font-variant:normal;font-weight:normal;font-size:12px;font-family:Montserrat;-inkscape-font-specification:Montserrat-Regular;writing-mode:lr-tb;fill:#2b2c2d;fill-opacity:1;fill-rule:nonzero;stroke:none"
           id="text159"><tspan
             x="0 6.4677854 14.952156 24.227547 31.295546 34.919544 44.675545 52.702888 55.847424 65.603424 73.630768 82.306763"
             y="0"
             id="tspan157">TAGLINE HERE</tspan></text>
      </g>
      <path
         d="m 2519.67,2920.33 916.38,916.38 c 7.81,7.82 20.47,7.82 28.28,0 7.81,-7.8 7.81,-20.47 0,-28.28 l -916.37,-916.38 c -7.81,-7.81 -20.48,-7.81 -28.29,0 -7.81,7.81 -7.81,20.47 0,28.28"
         style="fill:#1a1423;fill-opacity:1;fill-rule:nonzero;stroke:none"
         id="path161" />
      <path
         d="m 3417.69,3665.39 c 63.65,-89.8 95.58,-195.24 95.58,-300.64 0,-45.68 -5.91,-91.37 -17.82,-135.82 -22.88,-85.4 -67.89,-166.19 -134.86,-233.15 -101.73,-101.75 -235.26,-152.71 -368.6,-152.68 -133.34,-0.03 -266.87,50.93 -368.61,152.68 -101.75,101.74 -152.67,235.28 -152.65,368.62 0,42.81 5.25,85.62 15.74,127.38 22.16,88.36 67.84,172.14 136.91,241.21 102.12,102.14 236.24,152.71 369.98,152.68 97.74,0 195.4,-27.84 280.56,-82.69 9.29,-5.98 11.97,-18.36 5.98,-27.65 -5.98,-9.28 -18.35,-11.96 -27.64,-5.98 -78.62,50.64 -168.74,76.32 -258.9,76.32 -123.76,-0.03 -247.35,-46.64 -341.69,-140.96 -63.86,-63.87 -105.92,-141.07 -126.41,-222.66 -9.68,-38.57 -14.53,-78.11 -14.53,-117.65 0.03,-123.25 46.92,-246.3 140.94,-340.34 94.03,-94.01 217.08,-140.94 340.32,-140.96 123.24,0.02 246.29,46.95 340.32,140.96 61.91,61.92 103.36,136.37 124.5,215.23 11,41.01 16.46,83.23 16.46,125.46 0,97.35 -29.48,194.64 -88.22,277.51 -6.38,9.01 -4.25,21.49 4.76,27.88 9.01,6.39 21.49,4.26 27.88,-4.75"
         style="fill:#1a1423;fill-opacity:1;fill-rule:nonzero;stroke:none"
         id="path163" />
      <path
         d="m 2793.97,3054.22 c 60.11,-38.45 128.99,-57.67 197.92,-57.67 27.47,0 54.95,3.06 81.86,9.16 65.41,14.86 127.44,47.57 178.38,98.5 71.88,71.89 107.73,165.92 107.76,260.14 -0.03,94.22 -35.88,188.25 -107.76,260.13 -71.88,71.88 -165.91,107.71 -260.13,107.73 -29.11,0 -58.22,-3.43 -86.67,-10.3 -63.59,-15.34 -123.78,-47.75 -173.47,-97.43 -71.87,-71.88 -107.73,-165.91 -107.75,-260.13 0,-58.87 14.04,-117.71 42.09,-171.08 5.13,-9.78 1.37,-21.87 -8.41,-27.01 -9.77,-5.14 -21.86,-1.38 -27,8.4 -31.13,59.23 -46.68,124.47 -46.68,189.69 -0.02,104.32 39.86,208.83 119.47,288.42 54.98,54.99 121.89,91.03 192.37,108.03 31.53,7.61 63.79,11.41 96.05,11.41 104.31,0.03 208.82,-39.83 288.42,-119.44 79.61,-79.59 119.49,-184.1 119.47,-288.42 0.02,-104.32 -39.86,-208.83 -119.47,-288.42 -56.4,-56.41 -125.37,-92.79 -197.82,-109.22 -29.83,-6.77 -60.27,-10.16 -90.71,-10.16 -76.35,0 -152.75,21.3 -219.47,63.97 -9.3,5.96 -12.02,18.32 -6.07,27.63 5.95,9.3 18.32,12.02 27.62,6.07"
         style="fill:#af3e4d;fill-opacity:1;fill-rule:nonzero;stroke:none"
         id="path165" />
      <g
         id="g167"
         transform="scale(10)">
        <text
           xml:space="preserve"
           transform="matrix(1,0,0,-1,454.382,22.0129)"
           style="font-variant:normal;font-weight:500;font-size:16px;font-family:Montserrat;-inkscape-font-specification:Montserrat-Medium;writing-mode:lr-tb;fill:#74cfb6;fill-opacity:1;fill-rule:nonzero;stroke:none"
           id="text171"><tspan
             x="0 11.32757 24.76757 40.046886 50.878868 62.590866 75.58287 85.934868 90.238869 103.23087 114.94286 130.22287"
             y="0"
             id="tspan169">COMPANY NAME</tspan></text>
      </g>
      <g
         id="g173"
         transform="scale(10)">
        <text
           xml:space="preserve"
           transform="matrix(1,0,0,-1,479.686,4.12383)"
           style="font-variant:normal;font-weight:normal;font-size:12px;font-family:Montserrat;-inkscape-font-specification:Montserrat-Regular;writing-mode:lr-tb;fill:#2b2c2d;fill-opacity:1;fill-rule:nonzero;stroke:none"
           id="text177"><tspan
             x="0 6.4677854 14.951668 24.227667 31.295033 34.919033 44.675034 52.703033 55.847034 65.603035 73.631035 82.30703"
             y="0"
             id="tspan175">TAGLINE HERE</tspan></text>
      </g>
      <path
         d="m 4693.51,922.539 h 307.73 c -38.81,44.172 -64.19,100.441 -69.64,162.461 h -1.17 -269.04 -102.7 v -50.38 h 107.37 c 5.31,-38.768 14.57,-76.292 27.45,-112.081"
         style="fill:#2b2c2d;fill-opacity:1;fill-rule:nonzero;stroke:none"
         id="path179" />
      <path
         d="m 5736.29,922.539 h -307.73 c 38.8,44.172 64.19,100.441 69.63,162.461 h 1.18 269.04 102.69 v -50.38 h -107.36 c -5.31,-38.768 -14.57,-76.292 -27.45,-112.081"
         style="fill:#2b2c2d;fill-opacity:1;fill-rule:nonzero;stroke:none"
         id="path181" />
      <path
         d="m 5715.26,872.16 h -344.7 c -20.59,-13.512 -43.03,-24.398 -66.87,-32.23 -27.95,-9.18 -57.77,-14.211 -88.8,-14.211 -31.01,0 -60.84,5.031 -88.79,14.211 -23.83,7.832 -46.27,18.718 -66.86,32.23 h -344.7 -112.4 v -50.379 h 139.73 c 97.31,-159.312 272.67,-265.742 473.02,-265.742 200.37,0 375.73,106.43 473.04,265.742 h 139.73 v 50.379 h -112.4"
         style="fill:#74cfb6;fill-opacity:1;fill-rule:nonzero;stroke:none"
         id="path183" />
      <path
         d="m 5763.77,1185.75 c -36.86,270.28 -268.48,478.59 -548.88,478.59 -280.39,0 -512,-208.31 -548.86,-478.59 h -107.34 v -50.37 h 102.7 269.04 1.17 c 12.77,145.29 134.69,259.28 283.29,259.28 148.62,0 270.54,-113.99 283.3,-259.28 h 1.18 269.04 102.69 v 50.37 h -107.33"
         style="fill:#74cfb6;fill-opacity:1;fill-rule:nonzero;stroke:none"
         id="path185" />
      <g
         id="g187"
         transform="scale(10)">
        <text
           xml:space="preserve"
           transform="matrix(1,0,0,-1,229.15,21.034)"
           style="font-variant:normal;font-weight:500;font-size:16px;font-family:Montserrat;-inkscape-font-specification:Montserrat-Medium;writing-mode:lr-tb;fill:#74cfb6;fill-opacity:1;fill-rule:nonzero;stroke:none"
           id="text191"><tspan
             x="0 11.328107 24.768106 40.048107 50.879601 62.591599 75.583603 85.9356 90.239601 103.2316 114.9436 130.2236"
             y="0"
             id="tspan189">COMPANY NAME</tspan></text>
      </g>
      <g
         id="g193"
         transform="scale(10)">
        <text
           xml:space="preserve"
           transform="matrix(1,0,0,-1,254.454,3.14492)"
           style="font-variant:normal;font-weight:normal;font-size:12px;font-family:Montserrat;-inkscape-font-specification:Montserrat-Regular;writing-mode:lr-tb;fill:#2b2c2d;fill-opacity:1;fill-rule:nonzero;stroke:none"
           id="text197"><tspan
             x="0 6.4677854 14.952156 24.227547 31.295546 34.919544 44.675545 52.702888 55.847424 65.603424 73.630768 82.306763"
             y="0"
             id="tspan195">TAGLINE HERE</tspan></text>
      </g>
      <path
         d="m 3261.59,942.48 c -12.12,-19.039 -26.49,-37.07 -43.14,-53.718 -61.42,-61.403 -141.74,-92.032 -222.24,-92.051 -80.5,0.019 -160.81,30.648 -222.23,92.051 -61.4,61.418 -92.03,141.738 -92.05,222.238 0.02,80.5 30.65,160.81 92.05,222.23 61.42,61.4 141.73,92.03 222.23,92.05 69.14,-0.01 138.18,-22.64 195.18,-67.9 8.65,-6.87 21.23,-5.43 28.1,3.22 6.87,8.65 5.43,21.23 -3.22,28.1 -64.28,51.05 -142.22,76.59 -220.06,76.58 -90.6,0.02 -181.39,-34.63 -250.52,-103.76 -69.13,-69.13 -103.78,-159.92 -103.76,-250.52 -0.02,-90.61 34.63,-181.398 103.76,-250.52 69.13,-69.14 159.92,-103.789 250.52,-103.769 90.6,-0.02 181.39,34.629 250.52,103.769 18.72,18.719 34.93,39.051 48.6,60.52 5.93,9.32 3.19,21.68 -6.13,27.609 -9.32,5.93 -21.68,3.192 -27.61,-6.129"
         style="fill:#74cfb6;fill-opacity:1;fill-rule:nonzero;stroke:none"
         id="path199" />
      <path
         d="m 3399.17,1056.13 c -11.55,-85.138 -49.95,-167.2 -115.41,-232.669 -79.46,-79.441 -183.41,-119.09 -287.55,-119.109 -104.13,0.019 -208.08,39.668 -287.54,119.109 -79.43,79.449 -119.07,183.399 -119.1,287.539 0.03,104.13 39.67,208.08 119.1,287.53 79.44,79.42 183.36,119.08 287.46,119.11 23.58,0 47.15,-2.03 70.44,-6.1 10.88,-1.9 21.24,5.38 23.14,16.26 1.9,10.88 -5.38,21.24 -16.26,23.14 -25.57,4.47 -51.45,6.7 -77.32,6.7 -114.22,0.02 -228.61,-43.67 -315.74,-130.82 -87.17,-87.16 -130.84,-201.58 -130.82,-315.82 -0.02,-114.238 43.65,-228.668 130.82,-315.828 87.16,-87.172 201.58,-130.84 315.82,-130.82 114.24,-0.02 228.67,43.648 315.83,130.82 71.81,71.797 114.13,162.148 126.76,255.588 1.49,10.95 -6.19,21.02 -17.13,22.51 -10.95,1.48 -21.02,-6.19 -22.5,-17.14"
         style="fill:#2b2c2d;fill-opacity:1;fill-rule:nonzero;stroke:none"
         id="path201" />
      <path
         d="m 3464.22,1283.31 c 20.33,-55.36 30.58,-113.6 30.58,-171.84 -0.02,-127.841 -48.53,-255.509 -146.03,-353.029 -97.41,-97.39 -224.89,-146.011 -352.55,-146.031 -127.67,0.02 -255.15,48.641 -352.56,146.031 -97.39,97.411 -146,224.887 -146.03,352.559 0.03,127.66 48.64,255.15 146.03,352.55 59.06,59.05 129.12,100.13 203.61,123.37 10.54,3.29 16.42,14.51 13.13,25.05 -3.29,10.55 -14.5,16.43 -25.05,13.14 -80.47,-25.1 -156.27,-69.57 -219.97,-133.27 -105.13,-105.12 -157.77,-243.07 -157.75,-380.84 -0.02,-137.77 52.62,-275.73 157.75,-380.852 105.11,-105.117 243.07,-157.769 380.84,-157.738 137.77,-0.031 275.72,52.621 380.83,157.738 105.27,105.262 157.78,243.422 157.75,381.322 0,62.93 -11.07,125.84 -33.04,185.63 -3.81,10.37 -15.3,15.69 -25.67,11.88 -10.37,-3.81 -15.68,-15.3 -11.87,-25.67"
         style="fill:#74cfb6;fill-opacity:1;fill-rule:nonzero;stroke:none"
         id="path203" />
      <path
         d="m 3107.09,914.301 c -34.21,-19.313 -72.41,-29.031 -110.61,-29.031 -57.95,0.019 -115.7,21.941 -159.88,66.109 -44.11,44.133 -66.09,101.781 -66.11,159.621 0.02,57.83 22,115.48 66.11,159.61 44.13,44.11 101.78,66.09 159.61,66.11 57.84,-0.02 115.49,-22 159.62,-66.11 22.08,-22.08 38.57,-47.5 49.59,-74.66 4.16,-10.24 15.82,-15.17 26.06,-11.02 10.23,4.16 15.16,15.82 11.01,26.06 -12.98,31.99 -32.47,62 -58.38,87.91 -51.83,51.84 -119.96,77.85 -187.9,77.82 -67.94,0.03 -136.06,-25.98 -187.89,-77.82 -51.85,-51.84 -77.86,-119.96 -77.83,-187.9 -0.03,-67.94 25.98,-136.07 77.83,-187.91 51.91,-51.918 120.15,-77.852 188.16,-77.82 44.98,0 89.96,11.441 130.28,34.199 9.62,5.429 13.01,17.633 7.58,27.25 -5.43,9.613 -17.63,13.011 -27.25,7.582"
         style="fill:#2b2c2d;fill-opacity:1;fill-rule:nonzero;stroke:none"
         id="path205" />
      <path
         d="m 3076.72,1030.5 c -44.46,-44.469 -116.54,-44.469 -161.01,0 -44.46,44.45 -44.46,116.54 0,160.99 44.47,44.47 116.55,44.47 161.01,0 44.45,-44.45 44.45,-116.54 0,-160.99"
         style="fill:#74cfb6;fill-opacity:1;fill-rule:nonzero;stroke:none"
         id="path207" />
    </g>
  </g>
</svg>
